# 3ds Max Wavefront OBJ Exporter v0.97b - (c)2007 guruware
# File Created: 21.01.2017 18:23:23

#
# object Plane001
#

v  -188.982315063477 -86.613586425781 -233.757339477539
v  -143.872161865234 9.083353042603 -239.974304199219
v  -159.494949340820 -105.755142211914 -318.256500244141
v  -192.483581542969 -117.684196472168 -297.862396240234
v  -205.476287841797 -67.550598144531 -137.612167358398
v  -141.465362548828 48.096763610840 -144.121170043945
v  -235.213272094727 -67.773986816406 -78.896636962891
v  -155.459320068359 52.225620269775 -80.391670227051
v  -279.534332275391 -91.401229858398 -30.950675964355
v  -199.872787475586 28.290607452393 -25.925510406494
v  -279.402526855469 -91.765098571777 23.587779998779
v  -193.162353515625 24.133495330811 35.302719116211
v  -278.308837890625 -92.566253662109 78.371109008789
v  -192.375991821289 7.849299430847 96.530944824219
v  -297.087036132813 -76.460273742676 149.266296386719
v  -380.929229736328 -121.857437133789 107.182273864746
v  -381.777893066406 -108.971328735352 188.107467651367
v  -192.029434204102 -31.898149490356 171.767868041992
v  -286.794036865234 -81.155403137207 200.322769165039
v  -189.294921875000 -64.856620788574 223.135131835938
v  -74.667785644531 48.831832885742 -236.991806030273
v  -82.880767822266 -101.817054748535 -355.892883300781
v  -72.779083251953 109.939155578613 -143.499328613281
v  -80.527282714844 132.426040649414 -80.130920410156
v  -82.921035766602 150.089553833008 -26.140161514282
v  -102.324546813965 112.312896728516 34.574802398682
v  -102.324523925781 41.673339843750 95.289741516113
v  -101.673286437988 13.338705062866 169.895996093750
v  -100.536720275879 -47.359451293945 220.832733154297
v  -50.744735717773 64.552253723145 -236.200942993164
v  -43.951679229736 -99.459358215332 -339.245635986328
v  -53.259113311768 150.780105590820 -143.499328613281
v  -46.436103820801 188.689666748047 -80.130920410156
v  -23.405153274536 197.740264892578 -26.140171051025
v  -23.405138015747 156.248092651367 34.574787139893
v  -14.104830741882 68.574661254883 98.881217956543
v  -8.008337974548 42.698474884033 143.015975952148
v  4.013900756836 -47.873901367188 209.321762084961
v  5.331887722015 83.400810241699 -235.252593994141
v  -4.100144386292 -100.602546691895 -324.812469482422
v  -0.397000193596 170.350173950195 -143.499298095703
v  25.513462066650 210.910507202148 -80.130935668945
v  58.986087799072 223.185928344727 -26.140190124512
v  58.986087799072 181.693710327148 34.574771881104
v  58.986091613770 94.020271301270 95.289710998535
v  72.845802307129 66.881019592285 103.877716064453
v  99.375434875488 -42.012226104736 147.134704589844
v  31.055334091187 63.423362731934 -225.182052612305
v  34.906578063965 -90.915275573730 -347.229766845703
v  35.794044494629 114.631362915039 -143.499298095703
v  70.626243591309 120.430122375488 -80.130981445313
v  119.701034545898 126.472984313965 -26.140199661255
v  119.701034545898 103.564643859863 34.574760437012
v  72.233795166016 0.031642504036 -239.446960449219
v  63.211006164551 -94.830718994141 -345.777008056641
v  71.985084533691 45.404624938965 -143.499282836914
v  131.554229736328 58.516616821289 -80.130973815918
v  140.535293579102 69.276947021484 -26.140205383301
v  140.535293579102 71.345130920410 34.574756622314
v  92.630187988281 -53.892772674561 -236.283081054688
v  103.186874389648 -96.389266967773 -360.706359863281
v  84.166389465332 -22.721954345703 -136.147033691406
v  149.398178100586 -32.653465270996 -76.980377197266
v  160.968872070313 -35.124172210693 -30.886373519897
v  160.968872070313 -35.124172210693 21.474609375000
v  -198.250503540039 -111.865188598633 287.014038085938
v  -102.441947937012 -93.099655151367 294.190124511719
v  17.536247253418 -93.099678039551 271.217346191406
v  133.566467285156 -69.567398071289 -196.617324829102
v  162.798309326172 -110.568222045898 -288.074615478516
v  143.055221557617 -73.385124206543 -152.354904174805
v  185.410140991211 -85.156204223633 -78.459037780762
v  220.184738159180 -95.246376037598 -18.235069274902
v  220.184738159180 -95.246376037598 48.470394134521
v  175.918548583984 -90.448333740234 194.998931884766
v  -361.915435791016 -111.552146911621 281.640594482422
v  -421.587677001953 -162.700866699219 329.627105712891
v  -215.309997558594 -154.021331787109 371.107452392578
v  -105.278152465820 -137.504959106445 379.606384277344
v  44.401130676270 -139.059921264648 350.948638916016
v  334.957489013672 -128.563873291016 -31.556932449341
v  271.907409667969 -114.251281738281 -91.540824890137
v  334.957580566406 -140.958221435547 55.606067657471
v  224.869415283203 -137.991531372070 237.754379272461
v  217.953643798828 -114.332748413086 -227.871963500977
v  216.298950195313 -123.661338806152 -246.537246704102
v  228.696533203125 -99.247787475586 -167.973266601563
v  -249.955795288086 -108.586799621582 -307.145996093750
v  -295.433807373047 -95.626136779785 -228.958404541016
v  -289.287902832031 -101.653152465820 -151.400421142578
v  -327.690307617188 -97.690315246582 -75.834915161133
v  -383.508605957031 -125.616966247559 -18.584356307983
v  -382.341064453125 -123.322296142578 39.663383483887
v  -455.708770751953 -155.676177978516 210.732818603516
v  -452.888763427734 -161.003814697266 105.221633911133
v  -354.838867187500 -132.851699829102 -309.399566650391
v  -349.062530517578 -146.754714965820 -233.932464599609
v  -338.732208251953 -147.770568847656 -137.315002441406
v  -388.733154296875 -158.544845581055 -71.889984130859
v  -455.458770751953 -164.528305053711 -21.964622497559
v  -454.809997558594 -157.656143188477 37.623840332031
v  -174.451568603516 -144.016845703125 -395.627746582031
v  -136.715744018555 -145.526580810547 -412.091033935547
v  -76.748733520508 -143.726821899414 -432.716857910156
v  -45.037200927734 -139.442153930664 -439.477935791016
v  -3.935667514801 -140.002105712891 -445.618743896484
v  26.166482925415 -132.211837768555 -450.505493164063
v  49.731277465820 -137.126586914063 -446.291564941406
v  83.071723937988 -141.762695312500 -458.553588867188
v  147.613021850586 -140.298202514648 -389.644134521484
v  195.623550415039 -133.538864135742 -354.061920166016
v  -232.026184082031 -156.136032104492 -407.584564208984
v  -308.108123779297 -164.384918212891 -379.347137451172
# 113 vertices

vn -0.527576923370 0.784988641739 -0.324738979340
vn -0.657780885696 0.587382853031 -0.471493005753
vn -0.479210972786 0.733451724052 -0.482084423304
vn -0.154934957623 0.905916213989 -0.394095182419
vn -0.619709312916 0.747287571430 -0.239836663008
vn -0.763585627079 0.599417030811 -0.240075379610
vn -0.600320279598 0.749861299992 -0.278071075678
vn -0.753341972828 0.597915947437 -0.273810893297
vn -0.529789924622 0.848024487495 0.013305513188
vn -0.775927186012 0.618395745754 -0.124594084918
vn -0.578733682632 0.814977109432 0.029658138752
vn -0.687870025635 0.689378917217 0.227137804031
vn -0.549740314484 0.825324237347 -0.128939792514
vn -0.531951367855 0.810254156590 0.245999857783
vn -0.446115970612 0.894279539585 -0.035279713571
vn -0.421725958586 0.902353882790 -0.088908322155
vn -0.451990425587 0.892012596130 0.004266039468
vn -0.333607733250 0.804519116879 0.491380602121
vn -0.290597200394 0.938049674034 0.188722148538
vn -0.156899109483 0.833760976791 0.529363155365
vn -0.372399389744 0.640664875507 -0.671466529369
vn -0.054660864174 0.793609261513 -0.605967462063
vn -0.760629236698 0.578346073627 -0.294888108969
vn -0.742326617241 0.631720244884 -0.223339825869
vn -0.640915095806 0.766471982002 0.041815493256
vn -0.522329986095 0.691710591316 0.498706221581
vn -0.330805689096 0.791898012161 0.513288557529
vn -0.184531897306 0.777779459953 0.600838661194
vn -0.070056088269 0.765961050987 0.639058530331
vn -0.263010174036 0.592581748962 -0.761362254620
vn 0.207120627165 0.755662918091 -0.621348977089
vn -0.615638852119 0.660041272640 -0.430504769087
vn -0.623220264912 0.772580921650 -0.121306076646
vn -0.449781537056 0.855509817600 0.256514281034
vn -0.323271214962 0.689212024212 0.648446202278
vn -0.180795952678 0.704289436340 0.686505079269
vn 0.052125856280 0.733331739902 0.677869737148
vn 0.216201692820 0.732992053032 0.644964754581
vn 0.255501300097 0.611420154572 -0.748922228813
vn -0.111466407776 0.754272639751 -0.647030115128
vn 0.209451690316 0.769442498684 -0.603397250175
vn 0.224343329668 0.862822234631 -0.452998697758
vn 0.377389490604 0.925112485886 0.041762601584
vn 0.257421344519 0.711474299431 0.653864324093
vn 0.206244334579 0.486846804619 0.848789393902
vn 0.462419658899 0.445470243692 0.766631782055
vn 0.493710190058 0.705318808556 0.508700013161
vn 0.664619088173 0.523527145386 -0.533104896545
vn -0.132748752832 0.834224045277 -0.535208404064
vn 0.746504008770 0.491878837347 -0.448092609644
vn 0.703571796417 0.479321688414 -0.524630844593
vn 0.859685599804 0.435304284096 -0.267302840948
vn 0.734942138195 0.495943188667 0.462493658066
vn 0.808665454388 0.456415235996 -0.371140539646
vn 0.085760898888 0.884999752045 -0.457624882460
vn 0.819025278091 0.308084934950 -0.484026134014
vn 0.813001155853 0.378258764744 -0.442661821842
vn 0.927342116833 0.329547017813 -0.177300199866
vn 0.872410833836 0.287948876619 0.394949078560
vn 0.726743876934 0.647987365723 -0.227938070893
vn 0.313390702009 0.861665248871 -0.399148136377
vn 0.827746212482 0.389056533575 -0.404315799475
vn 0.798249363899 0.363981455564 -0.479911923409
vn 0.876123964787 0.471579819918 -0.100096337497
vn 0.831204473972 0.512323439121 0.215925410390
vn -0.105269543827 0.860259771347 0.498870193958
vn -0.054231036454 0.868910789490 0.491988867521
vn 0.162690252066 0.852595746517 0.496600836515
vn 0.421094119549 0.903191566467 -0.083214797080
vn 0.462573379278 0.836514294147 -0.293717116117
vn 0.480405032635 0.866411089897 -0.136172294617
vn 0.542004227638 0.812625467777 -0.214175850153
vn 0.503194808960 0.863735198975 -0.027504561469
vn 0.493932396173 0.864899158478 0.089332289994
vn 0.382826417685 0.858735799789 0.340612232685
vn -0.308834314346 0.884955585003 0.348532617092
vn -0.379057615995 0.840061843395 0.388086855412
vn -0.115637645125 0.876692593098 0.466945379972
vn -0.046712923795 0.885876715183 0.461562961340
vn 0.163963600993 0.868326187134 0.468108505011
vn 0.292604297400 0.953840970993 0.067602530122
vn 0.310081899166 0.948816001415 -0.059978745878
vn 0.362452656031 0.924432814121 0.118541054428
vn 0.426550805569 0.806808769703 0.408795803785
vn 0.381320804358 0.879138886929 -0.285848349333
vn 0.455825477839 0.805905461311 -0.377808809280
vn 0.273410618305 0.953112125397 -0.129706934094
vn -0.037336636335 0.926665961742 -0.374026894569
vn -0.406388610601 0.911892116070 -0.057455405593
vn -0.516428411007 0.853232562542 -0.072773315012
vn -0.471978217363 0.871209859848 -0.135018438101
vn -0.404782027006 0.914304077625 -0.014126275666
vn -0.367016404867 0.930160224438 -0.010045147501
vn -0.503626227379 0.861758232117 0.061101231724
vn -0.463668167591 0.885897040367 -0.014081248082
vn -0.355895519257 0.897002577782 -0.262153953314
vn -0.690284132957 0.710981369019 0.134213700891
vn -0.702499747276 0.673235893250 -0.230754345655
vn -0.590957581997 0.548130035400 -0.591880559921
vn -0.505033135414 0.838810443878 -0.203318864107
vn -0.442598104477 0.896680772305 -0.008395479992
vn -0.180778533220 0.919093847275 -0.350122243166
vn -0.196140214801 0.873240768909 -0.446071267128
vn -0.154019325972 0.890987336636 -0.427106112242
vn -0.090513601899 0.935474038124 -0.341607481241
vn -0.182634457946 0.929376602173 -0.320786207914
vn -0.042571142316 0.924587607384 -0.378583461046
vn 0.105132341385 0.905896306038 -0.410242676735
vn 0.150553420186 0.896464526653 -0.416755408049
vn 0.271079838276 0.920922994614 -0.280029624701
vn -0.084247723222 0.993612527847 -0.075076468289
vn -0.129538446665 0.914865374565 -0.382414877415
vn -0.224073871970 0.850129663944 -0.476519107819
# 113 vertex normals

vt 0.681518852711 0.263454169035 0.000000000000
vt 0.579403579235 0.294800132513 0.000000000000
vt 0.624981939793 0.161571443081 0.000000000000
vt 0.674192130566 0.183349147439 0.000000000000
vt 0.714413225651 0.371995568275 0.000000000000
vt 0.589056193829 0.400071412325 0.000000000000
vt 0.752351105213 0.442887336016 0.000000000000
vt 0.615846455097 0.464033454657 0.000000000000
vt 0.805056869984 0.507155835629 0.000000000000
vt 0.668830931187 0.519752979279 0.000000000000
vt 0.799922049046 0.575490355492 0.000000000000
vt 0.658685386181 0.584497809410 0.000000000000
vt 0.789400517941 0.636991739273 0.000000000000
vt 0.654974400997 0.651478171349 0.000000000000
vt 0.782153308392 0.720454573631 0.000000000000
vt 0.891340672970 0.673700928688 0.000000000000
vt 0.870249569416 0.763805270195 0.000000000000
vt 0.659100115299 0.737572550774 0.000000000000
vt 0.761803686619 0.775337338448 0.000000000000
vt 0.653806149960 0.799147129059 0.000000000000
vt 0.502508044243 0.309287726879 0.000000000000
vt 0.531758904457 0.117001123726 0.000000000000
vt 0.506651818752 0.418802231550 0.000000000000
vt 0.518924057484 0.478406667709 0.000000000000
vt 0.511458694935 0.522793650627 0.000000000000
vt 0.541387379169 0.576151609421 0.000000000000
vt 0.558725118637 0.659425973892 0.000000000000
vt 0.552786886692 0.730708003044 0.000000000000
vt 0.551508247852 0.801563858986 0.000000000000
vt 0.477357834578 0.315980106592 0.000000000000
vt 0.474799156189 0.122790761292 0.000000000000
vt 0.478959143162 0.434828817844 0.000000000000
vt 0.473811239004 0.491801589727 0.000000000000
vt 0.455256611109 0.523473024368 0.000000000000
vt 0.463800847530 0.572847247124 0.000000000000
vt 0.464028805494 0.666202187538 0.000000000000
vt 0.451402425766 0.702191948891 0.000000000000
vt 0.429520636797 0.800076246262 0.000000000000
vt 0.425270050764 0.333392500877 0.000000000000
vt 0.417959958315 0.134363591671 0.000000000000
vt 0.437540322542 0.448538631201 0.000000000000
vt 0.419737935066 0.503165006638 0.000000000000
vt 0.397682785988 0.521749436855 0.000000000000
vt 0.394224047661 0.559395909309 0.000000000000
vt 0.387000530958 0.647020339966 0.000000000000
vt 0.371162205935 0.654136657715 0.000000000000
vt 0.308959931135 0.739758372307 0.000000000000
vt 0.394022077322 0.331863909960 0.000000000000
vt 0.353454560041 0.137686967850 0.000000000000
vt 0.386684089899 0.422923833132 0.000000000000
vt 0.346914321184 0.471255332232 0.000000000000
vt 0.317420452833 0.529090881348 0.000000000000
vt 0.320627868176 0.590983986855 0.000000000000
vt 0.325791329145 0.295475333929 0.000000000000
vt 0.308228939772 0.152508065104 0.000000000000
vt 0.318808555603 0.401251316071 0.000000000000
vt 0.279016494751 0.478816419840 0.000000000000
vt 0.284271299839 0.532071709633 0.000000000000
vt 0.304827541113 0.588124394417 0.000000000000
vt 0.257861793041 0.289726823568 0.000000000000
vt 0.247761368752 0.156202018261 0.000000000000
vt 0.256909936666 0.395364791155 0.000000000000
vt 0.201018631458 0.476575523615 0.000000000000
vt 0.195484682918 0.539968848228 0.000000000000
vt 0.215050399303 0.607408881187 0.000000000000
vt 0.664981067181 0.878809571266 0.000000000000
vt 0.555488049984 0.884560942650 0.000000000000
vt 0.418797910213 0.870017766953 0.000000000000
vt 0.198521584272 0.337424874306 0.000000000000
vt 0.170742541552 0.233863279223 0.000000000000
vt 0.179854452610 0.387611955404 0.000000000000
vt 0.144585058093 0.482808500528 0.000000000000
vt 0.125559628010 0.570062756538 0.000000000000
vt 0.147646605968 0.652297496796 0.000000000000
vt 0.236801922321 0.801180481911 0.000000000000
vt 0.838008701801 0.861018538475 0.000000000000
vt 0.906253755093 0.919929504395 0.000000000000
vt 0.687576591969 0.972743391991 0.000000000000
vt 0.563549518585 0.981234669685 0.000000000000
vt 0.396375238895 0.962702035904 0.000000000000
vt 0.009039953351 0.588121771812 0.000000000000
vt 0.057285346091 0.495361298323 0.000000000000
vt 0.030003264546 0.689352035522 0.000000000000
vt 0.187333643436 0.861291408539 0.000000000000
vt 0.096124574542 0.305045336485 0.000000000000
vt 0.100621297956 0.272721499205 0.000000000000
vt 0.087837129831 0.387491554022 0.000000000000
vt 0.738274514675 0.181845918298 0.000000000000
vt 0.790928781033 0.268989413977 0.000000000000
vt 0.804173290730 0.357237368822 0.000000000000
vt 0.846837699413 0.447807133198 0.000000000000
vt 0.911630332470 0.521109104156 0.000000000000
vt 0.904069006443 0.593871593475 0.000000000000
vt 0.956597387791 0.794790744781 0.000000000000
vt 0.974195182323 0.678031563759 0.000000000000
vt 0.850768268108 0.176150217652 0.000000000000
vt 0.864976108074 0.258758395910 0.000000000000
vt 0.875942885876 0.366013079882 0.000000000000
vt 0.934727847576 0.444955468178 0.000000000000
vt 0.993701994419 0.525469779968 0.000000000000
vt 0.983099639416 0.597173571587 0.000000000000
vt 0.651837050915 0.075591035187 0.000000000000
vt 0.602651894093 0.053369782865 0.000000000000
vt 0.525919377804 0.025809174404 0.000000000000
vt 0.469263285398 0.016006773338 0.000000000000
vt 0.393876999617 0.014800038189 0.000000000000
vt 0.334903657436 0.026455460116 0.000000000000
vt 0.293956309557 0.042392641306 0.000000000000
vt 0.252681076527 0.044422686100 0.000000000000
vt 0.187471464276 0.123314298689 0.000000000000
vt 0.138348624110 0.162277773023 0.000000000000
vt 0.721651852131 0.064614899457 0.000000000000
vt 0.803624808788 0.094353899360 0.000000000000
# 113 texture coords

g Plane001
s 1
f 1/1/1 2/2/2 3/3/3 4/4/4 
f 1/1/1 5/5/5 6/6/6 2/2/2 
f 5/5/5 7/7/7 8/8/8 6/6/6 
f 7/7/7 9/9/9 10/10/10 8/8/8 
f 10/10/10 9/9/9 11/11/11 12/12/12 
f 11/11/11 13/13/13 14/14/14 12/12/12 
f 15/15/15 13/13/13 16/16/16 17/17/17 
f 18/18/18 15/15/15 19/19/19 20/20/20 
f 2/2/2 21/21/21 22/22/22 3/3/3 
f 2/2/2 6/6/6 23/23/23 21/21/21 
f 6/6/6 8/8/8 24/24/24 23/23/23 
f 8/8/8 10/10/10 25/25/25 24/24/24 
f 10/10/10 12/12/12 26/26/26 25/25/25 
f 12/12/12 14/14/14 27/27/27 26/26/26 
f 14/14/14 18/18/18 28/28/28 27/27/27 
f 18/18/18 20/20/20 29/29/29 28/28/28 
f 21/21/21 30/30/30 31/31/31 22/22/22 
f 21/21/21 23/23/23 32/32/32 30/30/30 
f 23/23/23 24/24/24 33/33/33 32/32/32 
f 24/24/24 25/25/25 34/34/34 33/33/33 
f 25/25/25 26/26/26 35/35/35 34/34/34 
f 26/26/26 27/27/27 36/36/36 35/35/35 
f 27/27/27 28/28/28 37/37/37 36/36/36 
f 28/28/28 29/29/29 38/38/38 37/37/37 
f 30/30/30 39/39/39 40/40/40 31/31/31 
f 30/30/30 32/32/32 41/41/41 39/39/39 
f 32/32/32 33/33/33 42/42/42 41/41/41 
f 33/33/33 34/34/34 43/43/43 42/42/42 
f 34/34/34 35/35/35 44/44/44 43/43/43 
f 35/35/35 36/36/36 45/45/45 44/44/44 
f 36/36/36 37/37/37 46/46/46 45/45/45 
f 37/37/37 38/38/38 47/47/47 46/46/46 
f 40/40/40 39/39/39 48/48/48 49/49/49 
f 39/39/39 41/41/41 50/50/50 48/48/48 
f 41/41/41 42/42/42 51/51/51 50/50/50 
f 42/42/42 43/43/43 52/52/52 51/51/51 
f 43/43/43 44/44/44 53/53/53 52/52/52 
f 45/45/45 53/53/53 44/44/44 
f 49/49/49 48/48/48 54/54/54 55/55/55 
f 48/48/48 50/50/50 56/56/56 54/54/54 
f 50/50/50 51/51/51 57/57/57 56/56/56 
f 51/51/51 52/52/52 58/58/58 57/57/57 
f 52/52/52 53/53/53 59/59/59 58/58/58 
f 55/55/55 54/54/54 60/60/60 61/61/61 
f 54/54/54 56/56/56 62/62/62 60/60/60 
f 56/56/56 57/57/57 63/63/63 62/62/62 
f 57/57/57 58/58/58 64/64/64 63/63/63 
f 58/58/58 59/59/59 65/65/65 64/64/64 
f 29/29/29 20/20/20 66/66/66 67/67/67 
f 38/38/38 29/29/29 67/67/67 68/68/68 
f 60/60/60 69/69/69 70/70/70 61/61/61 
f 60/60/60 62/62/62 71/71/71 69/69/69 
f 62/62/62 63/63/63 72/72/72 71/71/71 
f 63/63/63 64/64/64 73/73/73 72/72/72 
f 64/64/64 65/65/65 74/74/74 73/73/73 
f 47/47/47 38/38/38 68/68/68 75/75/75 
f 76/76/76 77/77/77 78/78/78 66/66/66 
f 67/67/67 66/66/66 78/78/78 79/79/79 
f 68/68/68 67/67/67 79/79/79 80/80/80 
f 72/72/72 73/73/73 81/81/81 82/82/82 
f 73/73/73 74/74/74 83/83/83 81/81/81 
f 75/75/75 68/68/68 80/80/80 84/84/84 
f 85/85/85 86/86/86 70/70/70 69/69/69 
f 71/71/71 87/87/87 85/85/85 69/69/69 
f 72/72/72 82/82/82 87/87/87 71/71/71 
f 88/88/88 89/89/89 1/1/1 4/4/4 
f 89/89/89 90/90/90 5/5/5 1/1/1 
f 5/5/5 90/90/90 91/91/91 7/7/7 
f 91/91/91 92/92/92 9/9/9 7/7/7 
f 92/92/92 93/93/93 11/11/11 9/9/9 
f 93/93/93 16/16/16 13/13/13 11/11/11 
f 15/15/15 18/18/18 14/14/14 13/13/13 
f 17/17/17 76/76/76 19/19/19 15/15/15 
f 94/94/94 17/17/17 16/16/16 95/95/95 
f 96/96/96 97/97/97 89/89/89 88/88/88 
f 98/98/98 90/90/90 89/89/89 97/97/97 
f 99/99/99 91/91/91 90/90/90 98/98/98 
f 100/100/100 92/92/92 91/91/91 99/99/99 
f 101/101/101 93/93/93 92/92/92 100/100/100 
f 95/95/95 16/16/16 93/93/93 101/101/101 
f 17/17/17 94/94/94 77/77/77 76/76/76 
f 75/75/75 84/84/84 83/83/83 74/74/74 
f 47/47/47 75/75/75 74/74/74 65/65/65 
f 45/45/45 46/46/46 59/59/59 53/53/53 
f 65/65/65 59/59/59 46/46/46 47/47/47 
f 76/76/76 66/66/66 20/20/20 19/19/19 
f 102/102/102 4/4/4 3/3/3 103/103/103 
f 103/103/103 3/3/3 22/22/22 104/104/104 
f 104/104/104 22/22/22 31/31/31 105/105/105 
f 105/105/105 31/31/31 40/40/40 106/106/106 
f 106/106/106 40/40/40 49/49/49 107/107/107 
f 107/107/107 49/49/49 55/55/55 108/108/108 
f 108/108/108 55/55/55 61/61/61 109/109/109 
f 109/109/109 61/61/61 70/70/70 110/110/110 
f 110/110/110 70/70/70 86/86/86 111/111/111 
f 112/112/112 88/88/88 4/4/4 102/102/102 
f 113/113/113 96/96/96 88/88/88 112/112/112 
# 96 polygons - 1 triangles

